# xmcd
#
# Track frame offsets: 
#        150
#        13486
#        13786
#        32477
#        48998
#        67582
#        81462
#        100050
#        118435
#        134148
#        156423
#        172008
#        172308
#
# Disc length: 2519 seconds
#
# Revision: 0
# Processed by: cddbd v1.5.2PL0 Copyright (c) Steve Scherf et al.
# Submitted via: ExactAudioCopy v1.1
#
DISCID=bc09d50d
DTITLE=Paul Thorn - Pimps And Preachers
DYEAR=2010
DGENRE=Folk, World, Country
TTITLE0=You're Not The Only One
TTITLE1=Pimps and Preachers
TTITLE2=Tequila Is Good For The Heart
TTITLE3=Love Scar
TTITLE4=Weeds In My Roses
TTITLE5=Better Days Ahead
TTITLE6=Ray Ann's Shoes
TTITLE7=You Might Be Wrong
TTITLE8=Buckskin Jones
TTITLE9=I Hope I'm Doing This Right
TTITLE10=I Don't Like Half The Folks I Love
TTITLE11=Nona Lisa
TTITLE12=That's Life
EXTD=
EXTT0=
EXTT1=
EXTT2=
EXTT3=
EXTT4=
EXTT5=
EXTT6=
EXTT7=
EXTT8=
EXTT9=
EXTT10=
EXTT11=
EXTT12=
PLAYORDER=
